<?xml version="1.0" encoding="UTF-8"?>
<svg version="1.1" xmlns="http://www.w3.org/2000/svg" width="500" height="500">
<path d="M0 0 C-0.68004921 3.7637937 -1.68097828 7.31566058 -2.84887695 10.95605469 C-4.98581145 17.81211056 -6.74208755 24.72210419 -8.41796875 31.703125 C-8.72068192 32.94753357 -9.02339508 34.19194214 -9.33528137 35.47406006 C-10.28975757 39.39847887 -11.23929602 43.32406275 -12.1875 47.25 C-13.4474617 52.46460907 -14.71275397 57.67789388 -15.98046875 62.890625 C-16.26899216 64.09148743 -16.55751556 65.29234985 -16.8547821 66.52960205 C-17.12208633 67.62874939 -17.38939056 68.72789673 -17.66479492 69.86035156 C-17.89921799 70.83151917 -18.13364105 71.80268677 -18.37516785 72.80328369 C-19 75 -19 75 -20 76 C-22.03728055 76.10904838 -24.07837991 76.14691105 -26.11854553 76.15821838 C-27.08762908 76.16562535 -27.08762908 76.16562535 -28.07629007 76.17318195 C-30.25666787 76.18862786 -32.43701607 76.19693661 -34.61743164 76.20532227 C-36.17421228 76.21489523 -37.73099028 76.22490496 -39.2877655 76.23532104 C-43.52722373 76.26243926 -47.76669316 76.28341124 -52.00619054 76.30332303 C-56.43183659 76.32514008 -60.85744781 76.35254964 -65.2830658 76.37937927 C-73.66951453 76.42936424 -82.05598253 76.47428146 -90.44246906 76.51740164 C-99.98767822 76.56672452 -109.53285244 76.62166094 -119.07802784 76.67708123 C-138.71865429 76.79099034 -158.35931274 76.89706867 -178 77 C-181.3 92.18 -184.6 107.36 -188 123 C-179.9440939 125.450759 -179.9440939 125.450759 -171.84887695 127.34692383 C-170.74738312 127.56778656 -169.64588928 127.78864929 -168.51101685 128.01620483 C-167.3485141 128.24417755 -166.18601135 128.47215027 -164.98828125 128.70703125 C-163.75375214 128.95305084 -162.51922302 129.19907043 -161.24728394 129.45254517 C-157.94862091 130.10884034 -154.64916717 130.76083223 -151.34923935 131.41071701 C-148.61733069 131.94963449 -145.88619281 132.49239975 -143.1550684 133.03527546 C-127.64964789 136.11734153 -112.13549788 139.15237715 -96.6081543 142.12207031 C-88.50875479 143.68038847 -80.44662241 145.37589629 -72.39648438 147.17089844 C-67.30883363 148.30087702 -62.21455681 149.3614688 -57.09765625 150.3515625 C-55.94571777 150.57513428 -54.7937793 150.79870605 -53.60693359 151.02905273 C-51.37025838 151.45974765 -49.13233149 151.884005 -46.89306641 152.30102539 C-45.89065918 152.4943042 -44.88825195 152.68758301 -43.85546875 152.88671875 C-42.96496826 153.05389404 -42.07446777 153.22106934 -41.15698242 153.39331055 C-39 154 -39 154 -37 156 C-36.78155567 164.27789041 -38.8639404 172.87304183 -40.25 181 C-40.44207031 182.155 -40.63414062 183.31 -40.83203125 184.5 C-41.85783897 190.59033011 -42.93197743 196.66882497 -44.07397461 202.73852539 C-46.37590671 214.97338338 -48.56796196 227.21571332 -50.59179306 239.49921799 C-50.9723048 241.8064627 -51.35504918 244.11332581 -51.73855591 246.42007446 C-51.86562487 247.18467295 -51.99269382 247.94927143 -52.12361336 248.73703957 C-52.38126302 250.28733698 -52.63894714 251.83762867 -52.89666557 253.38791466 C-53.55401586 257.34880119 -54.20521945 261.31055838 -54.84594727 265.27416992 C-55.47965242 269.19155261 -56.12899295 273.10605695 -56.78899956 277.01909065 C-57.03436209 278.49130745 -57.27398405 279.96449371 -57.50755501 281.43862724 C-57.83139329 283.47807891 -58.17512264 285.51323326 -58.52368164 287.54858398 C-58.8075045 289.27841774 -58.8075045 289.27841774 -59.09706116 291.04319763 C-60.3836125 295.256194 -62.52759142 297.19220635 -66.32739258 299.27685547 C-67.17454834 299.63666504 -68.0217041 299.99647461 -68.89453125 300.3671875 C-69.84303955 300.77493408 -70.79154785 301.18268066 -71.76879883 301.6027832 C-72.77322021 302.02261475 -73.7776416 302.44244629 -74.8125 302.875 C-76.35877075 303.53471802 -76.35877075 303.53471802 -77.9362793 304.20776367 C-84.86045948 307.14776896 -91.83398377 309.94731736 -98.8359375 312.6953125 C-102.60397211 314.24904529 -106.19854056 316.04665891 -109.81640625 317.91796875 C-112.4252872 319.2107416 -115.0696109 320.21584054 -117.8125 321.18359375 C-121.50338265 322.56108388 -125.08397123 324.20885065 -128.6796875 325.81640625 C-137.20016009 328.85370413 -145.47068066 329.272205 -154.44995117 329.17602539 C-155.65673019 329.17161438 -156.86350922 329.16720337 -158.1068573 329.16265869 C-160.71816413 329.15284837 -163.32945834 329.13901396 -165.94072533 329.12156868 C-170.11508027 329.09448043 -174.28926792 329.09071577 -178.46369934 329.09165955 C-179.90592861 329.09173524 -181.34815788 329.09180096 -182.79038715 329.09185696 C-183.5127404 329.09190664 -184.23509364 329.09195633 -184.97933638 329.09200752 C-194.6748442 329.09108182 -204.36991158 329.07301938 -214.06518555 329.00366211 C-222.74551197 328.9440307 -231.42502663 328.92731917 -240.10546875 328.97265625 C-241.16132494 328.9780494 -241.16132494 328.9780494 -242.23851156 328.9835515 C-264.90712071 329.12625963 -285.76433668 331.66151728 -307.52041626 338.08102417 C-312.23598279 339.32642937 -317.10139536 340.32415376 -322 340 C-322.66 339.34 -323.32 338.68 -324 338 C-323.81154747 334.93277257 -323.46569851 332.03168701 -323 329 C-322.83145508 327.88882812 -322.66291016 326.77765625 -322.48925781 325.6328125 C-321.88523383 321.75229171 -321.25863538 317.87576242 -320.625 314 C-320.39716806 312.59693174 -320.1693852 311.19385551 -319.94165039 309.79077148 C-318.37687894 300.1781842 -316.7095078 290.58810897 -315 281 C-313.68 273.08 -312.36 265.16 -311 257 C-262.82 257 -214.64 257 -165 257 C-163.62569515 248.06855264 -163.62569515 248.06855264 -162.25390625 239.13671875 C-160.87030084 230.19823528 -159.3603412 221.29961966 -157.6484375 212.41796875 C-157.05396043 209.28442999 -156.51889732 206.14674553 -156 203 C-157.16402344 202.82585571 -157.16402344 202.82585571 -158.3515625 202.64819336 C-166.58936256 201.40035834 -174.79769787 200.02461015 -183 198.5625 C-184.16789063 198.35818359 -185.33578125 198.15386719 -186.5390625 197.94335938 C-193.42583899 196.71794072 -200.22415878 195.28122381 -207.03076172 193.67163086 C-211.01889632 192.76952937 -215.02146085 192.11119907 -219.0625 191.5 C-223.98760971 190.71951533 -228.80811208 189.87490687 -233.625 188.5625 C-239.56202056 186.97929452 -245.56515352 186.03604294 -251.625 185.0625 C-259.09470575 183.85080557 -266.5382668 182.59166785 -273.9375 181 C-274.97221436 180.78742554 -274.97221436 180.78742554 -276.02783203 180.57055664 C-279.69771166 179.75278737 -282.72629819 178.6575291 -286.0625 176.91796875 C-292.43042445 173.97009601 -299.16727 174.36302684 -306.0625 174.3125 C-308.69938243 174.27376469 -311.33592565 174.22463405 -313.97265625 174.17578125 C-315.19355957 174.15467285 -316.41446289 174.13356445 -317.67236328 174.11181641 C-321.51381307 173.98273467 -325.20571172 173.59451906 -329 173 C-329.703125 171.3046875 -329.703125 171.3046875 -330 169 C-328.734375 166.6953125 -328.734375 166.6953125 -326.75 164.125 C-326.00878906 163.15433594 -325.26757812 162.18367187 -324.50390625 161.18359375 C-323.67027068 160.12161021 -322.83560235 159.06043671 -322 158 C-321.1337502 156.88700225 -320.26787232 155.77371496 -319.40234375 154.66015625 C-315.66756496 149.87429237 -311.89823283 145.11657208 -308.09765625 140.3828125 C-296.31777653 125.65946667 -290.69893673 113.21143048 -287.01037598 94.74124146 C-286.25259059 90.94916483 -285.47857294 87.16039075 -284.70703125 83.37109375 C-284.5575705 82.63495346 -284.40810974 81.89881317 -284.25411987 81.1403656 C-279.79227775 59.19189108 -279.79227775 59.19189108 -276.6796875 48.859375 C-276.11846411 46.49836625 -275.80217009 44.35601274 -275.5703125 41.953125 C-275.48467041 41.23850098 -275.39902832 40.52387695 -275.31079102 39.78759766 C-275.14982702 38.38561229 -275.03291886 36.97759566 -274.96850586 35.56787109 C-274.72265625 33.6015625 -274.72265625 33.6015625 -273 30 C-269.24795305 27.63160784 -265.2064461 26.35514983 -261 25 C-260.3634549 24.79048706 -259.72690979 24.58097412 -259.07107544 24.3651123 C-254.2351601 22.77681216 -249.37210038 21.28534438 -244.5 19.8125 C-242.33842713 19.15596329 -240.17745422 18.49762535 -238.0177002 17.83512878 C-236.08012132 17.24117168 -234.14069898 16.65323793 -232.20117188 16.06567383 C-229.62392132 15.20770413 -227.38335282 14.2731102 -225 13 C-223.5317308 12.50787294 -222.05108728 12.05174509 -220.5625 11.625 C-215.40360398 10.12922542 -210.28957443 8.51022441 -205.17578125 6.8671875 C-197.20032382 4.68938732 -189.36484964 4.8548281 -181.14306641 4.8581543 C-179.73746635 4.85511805 -178.33186727 4.85159531 -176.92626953 4.84762573 C-173.90402748 4.8397598 -170.88179711 4.83459996 -167.85954666 4.83133507 C-163.04438012 4.82537356 -158.22928559 4.80877617 -153.41415405 4.78999329 C-151.75639539 4.78365548 -150.09863667 4.77732986 -148.44087791 4.77101612 C-147.6104267 4.76785031 -146.77997549 4.7646845 -145.92435908 4.76142275 C-134.72872042 4.71964436 -123.53311358 4.68651249 -112.33740234 4.67407227 C-104.77054778 4.66557834 -97.20387092 4.64266926 -89.63710535 4.6047166 C-85.65270972 4.58530537 -81.66857738 4.5724301 -77.68413162 4.57755089 C-53.81242858 4.60248776 -29.32144239 4.08516013 -6.05375099 -1.83125782 C-3.48659029 -2.04218324 -2.17248171 -1.31409145 0 0 Z " fill="#9154EE" transform="translate(426,79)"/>
<path d="M0 0 C0.33 0.99 0.66 1.98 1 3 C0.01 3.33 -0.98 3.66 -2 4 C-2.268125 5.0725 -2.53625 6.145 -2.8125 7.25 C-4.07426114 11.23450886 -5.19856827 12.21679728 -8.484375 14.609375 C-10.81029289 16.74346461 -11.78388976 19.33797307 -12.9453125 22.23046875 C-14.27559922 24.46239425 -15.62955128 25.04100104 -18 26 C-18 27.65 -18 29.3 -18 31 C-17.34 31.33 -16.68 31.66 -16 32 C-16 32.66 -16 33.32 -16 34 C-4.78 34 6.44 34 18 34 C18 34.66 18 35.32 18 36 C19.32 36 20.64 36 22 36 C22 36.66 22 37.32 22 38 C20.9886499 37.84080078 19.9772998 37.68160156 18.93530273 37.51757812 C15.26936551 37.03542744 11.72883856 36.81444521 8.03515625 36.71875 C6.74029297 36.68136719 5.44542969 36.64398438 4.11132812 36.60546875 C2.76173054 36.56986276 1.41212093 36.53470964 0.0625 36.5 C-15.89792462 36.08844067 -15.89792462 36.08844067 -23 35 C-23.703125 33.3046875 -23.703125 33.3046875 -24 31 C-22.734375 28.6953125 -22.734375 28.6953125 -20.75 26.125 C-20.01652344 25.16464844 -19.28304687 24.20429688 -18.52734375 23.21484375 C-17.68561239 22.14266624 -16.84312488 21.07108204 -16 20 C-15.06332436 18.79333943 -14.12714149 17.58629622 -13.19140625 16.37890625 C-8.88199346 10.84301305 -4.51135496 5.37298312 0 0 Z " fill="#A782E1" transform="translate(120,217)"/>
<path d="M0 0 C-0.60990891 3.55780196 -1.5783681 6.6828589 -3 10 C-5 7 -5 7 -4.625 4.3125 C-4.41875 3.549375 -4.2125 2.78625 -4 2 C-5.64630328 2.14042877 -7.29204179 2.28749329 -8.9375 2.4375 C-9.85402344 2.51871094 -10.77054687 2.59992188 -11.71484375 2.68359375 C-13.96159732 2.76044976 -13.96159732 2.76044976 -15 4 C-18.2098693 4.26998901 -21.41230859 4.44611437 -24.62890625 4.60546875 C-28.10944277 4.4970552 -28.10944277 4.4970552 -31 6 C-33.69654854 6.07319621 -36.36691458 6.09242537 -39.0625 6.0625 C-40.20041992 6.05573242 -40.20041992 6.05573242 -41.36132812 6.04882812 C-43.24091871 6.0370068 -45.12046899 6.01907078 -47 6 C-47 5.34 -47 4.68 -47 4 C-46.0527002 3.88930176 -45.10540039 3.77860352 -44.12939453 3.66455078 C-40.56917182 3.24741608 -37.00960328 2.82490487 -33.45019531 2.40087891 C-31.91813849 2.219104 -30.38591458 2.038731 -28.85351562 1.85986328 C-26.63364079 1.60049148 -24.41434405 1.33679885 -22.1953125 1.0703125 C-21.47659973 0.98452942 -20.75788696 0.89874634 -20.01739502 0.81036377 C-15.25211333 0.21864172 -10.62159252 -0.62095848 -5.97607422 -1.83251953 C-3.45553162 -2.04614595 -2.13472149 -1.28466952 0 0 Z " fill="#A075E4" transform="translate(426,79)"/>
<path d="M0 0 C2.73461099 8.20383297 0.15795992 16.00065314 -1.98046875 24.02734375 C-3.1175326 28.33039064 -3.90476566 32.66446501 -4.60546875 37.05859375 C-5 39 -5 39 -6 40 C-6.36760731 42.32817964 -6.70241581 44.6618385 -7 47 C-9 45 -9 45 -9.30078125 42.203125 C-9.12458676 36.27686162 -7.51657959 30.4999188 -6.1875 24.75 C-5.92646484 23.58597656 -5.66542969 22.42195313 -5.39648438 21.22265625 C-3.78003162 14.09429915 -1.99042069 7.03299838 0 0 Z " fill="#BA97EA" transform="translate(150,125)"/>
<path d="M0 0 C2.29013653 3.4352048 2.17842973 4.985331 2 9 C1.67 9 1.34 9 1 9 C0.93941406 9.84304688 0.87882812 10.68609375 0.81640625 11.5546875 C0.73261719 12.65039062 0.64882813 13.74609375 0.5625 14.875 C0.48128906 15.96554687 0.40007812 17.05609375 0.31640625 18.1796875 C0 21 0 21 -1 23 C-1.31255647 25.85207778 -1.51037482 28.70496854 -1.71875 31.56640625 C-2 34 -2 34 -3 35 C-3.53812774 38.6176655 -3.9667289 42.24365604 -4.40234375 45.875 C-4.59957031 46.90625 -4.79679687 47.9375 -5 49 C-5.99 49.495 -5.99 49.495 -7 50 C-7.26564021 42.58446525 -6.49543856 35.66646288 -5.1875 28.375 C-5.00735352 27.33408203 -4.82720703 26.29316406 -4.64160156 25.22070312 C-3.17395625 16.79927639 -1.62897769 8.39170323 0 0 Z " fill="#A67DE2" transform="translate(269,288)"/>
<path d="M0 0 C7.3322304 0.81266315 14.55801956 2.10899664 21.8125 3.4375 C23.03904297 3.65470703 24.26558594 3.87191406 25.52929688 4.09570312 C26.70169922 4.31033203 27.87410156 4.52496094 29.08203125 4.74609375 C30.14655518 4.93872803 31.2110791 5.1313623 32.30786133 5.32983398 C35 6 35 6 38 8 C32.97759844 8.94082786 29.16644826 8.90855283 24.19140625 7.78515625 C22.95068359 7.51123047 21.70996094 7.23730469 20.43164062 6.95507812 C19.15482422 6.66052734 17.87800781 6.36597656 16.5625 6.0625 C15.24569085 5.76776937 13.92863486 5.47413929 12.61132812 5.18164062 C9.4049612 4.46519966 6.20153256 3.73769057 3 3 C3 2.34 3 1.68 3 1 C2.01 0.67 1.02 0.34 0 0 Z " fill="#B08FE6" transform="translate(344,225)"/>
<path d="M0 0 C0.33 0.99 0.66 1.98 1 3 C0.01 3.33 -0.98 3.66 -2 4 C-2.268125 5.0725 -2.53625 6.145 -2.8125 7.25 C-4.07426114 11.23450886 -5.19856827 12.21679728 -8.484375 14.609375 C-10.81029289 16.74346461 -11.78388976 19.33797307 -12.9453125 22.23046875 C-14.27559922 24.46239425 -15.62955128 25.04100104 -18 26 C-18 26.66 -18 27.32 -18 28 C-18.99 27.67 -19.98 27.34 -21 27 C-17.34748512 22.09794056 -13.6574761 17.22596548 -9.9375 12.375 C-9.5264502 11.83721924 -9.11540039 11.29943848 -8.69189453 10.74536133 C-5.88003361 7.085914 -2.97239449 3.52872502 0 0 Z " fill="#B794E8" transform="translate(120,217)"/>
<path d="M0 0 C0.33 0 0.66 0 1 0 C0.34141462 7.77328653 -0.79635682 15.42971285 -2.0625 23.125 C-2.24876953 24.27226562 -2.43503906 25.41953125 -2.62695312 26.6015625 C-3.08194174 29.40149245 -3.53967513 32.20094331 -4 35 C-4.33 35 -4.66 35 -5 35 C-4.93941406 34.25878906 -4.87882812 33.51757812 -4.81640625 32.75390625 C-4.73261719 31.70074219 -4.64882813 30.64757812 -4.5625 29.5625 C-4.46839844 28.38816406 -4.37429688 27.21382813 -4.27734375 26.00390625 C-4.06670071 23.17901997 -3.92422239 20.35797435 -3.81640625 17.52734375 C-3.78409912 16.77573975 -3.75179199 16.02413574 -3.71850586 15.24975586 C-3.65724163 13.77573542 -3.60686905 12.30121272 -3.56860352 10.82641602 C-3.37388628 6.4336571 -2.68120947 3.51994679 0 0 Z " fill="#CAACF1" transform="translate(376,304)"/>
<path d="M0 0 C1.65 0 3.3 0 5 0 C5.33 0.66 5.66 1.32 6 2 C3.73392948 3.03275341 1.46318061 4.05133551 -0.8125 5.0625 C-1.77639648 5.50432617 -1.77639648 5.50432617 -2.75976562 5.95507812 C-7.66015625 8.11328125 -7.66015625 8.11328125 -11 7 C-10.67 6.01 -10.34 5.02 -10 4 C-9.34 3.67 -8.68 3.34 -8 3 C-8 2.34 -8 1.68 -8 1 C-5.36 1.33 -2.72 1.66 0 2 C0 1.34 0 0.68 0 0 Z " fill="#A980E7" transform="translate(347,379)"/>
<path d="M0 0 C1.125 3.75 1.125 3.75 0 6 C0.66 6.33 1.32 6.66 2 7 C1.01 7.33 0.02 7.66 -1 8 C-1.268125 9.093125 -1.53625 10.18625 -1.8125 11.3125 C-3.26155347 15.81219237 -4.93606681 16.79134066 -9 19 C-9 15.17972781 -7.73911506 13.77459998 -5.625 10.625 C-3.30355044 7.1571556 -1.41567065 3.93241847 0 0 Z " fill="#B28AE8" transform="translate(135,193)"/>
<path d="M0 0 C0.33 0 0.66 0 1 0 C1.16335585 5.23419357 0.60552037 9.86306192 -0.5 14.9375 C-0.64308594 15.62134766 -0.78617187 16.30519531 -0.93359375 17.00976562 C-1.28283771 18.67449514 -1.64052946 20.33744875 -2 22 C-2.33 22 -2.66 22 -3 22 C-3.08126109 19.27022936 -3.14061663 16.5428983 -3.1875 13.8125 C-3.21263672 13.04357422 -3.23777344 12.27464844 -3.26367188 11.48242188 C-3.32376277 6.81536232 -3.02808581 3.80608266 0 0 Z " fill="#B392E8" transform="translate(382,269)"/>
<path d="M0 0 C1.09180878 3.30529345 0.88297902 5.42086032 0.00390625 8.765625 C-0.33930664 10.09980469 -0.33930664 10.09980469 -0.68945312 11.4609375 C-0.93630859 12.38132812 -1.18316406 13.30171875 -1.4375 14.25 C-1.68048828 15.18585938 -1.92347656 16.12171875 -2.17382812 17.0859375 C-2.77412867 19.3929749 -3.38310665 21.69735439 -4 24 C-4.33 24 -4.66 24 -5 24 C-5.38866045 16.35634448 -4.28903298 9.31860543 -2 2 C-1.34 1.34 -0.68 0.68 0 0 Z " fill="#BB9BEB" transform="translate(421,90)"/>
<path d="M0 0 C-0.60990891 3.55780196 -1.5783681 6.6828589 -3 10 C-5 7 -5 7 -5 4 C-4.34 4 -3.68 4 -3 4 C-3 3.01 -3 2.02 -3 1 C-6.63 1 -10.26 1 -14 1 C-8.99113731 -1.50443135 -4.98549446 -3.25974638 0 0 Z " fill="#C0A2E9" transform="translate(426,79)"/>
<path d="M0 0 C8.13709505 0.71378027 16.01731928 2.32773882 24 4 C20.25970049 6.48422878 17.45474198 5.96894475 13.125 5.3125 C11.33449219 5.05919922 11.33449219 5.05919922 9.5078125 4.80078125 C5.95538327 3.98981467 3.17511115 2.76233234 0 1 C0 0.67 0 0.34 0 0 Z " fill="#AB87E4" transform="translate(308,218)"/>
<path d="M0 0 C3.27168054 10.23961087 -0.80269529 22.21476047 -4 32 C-4.33 32 -4.66 32 -5 32 C-4.31597225 25.5148908 -3.47057937 19.07310652 -2.5 12.625 C-2.36980469 11.73683594 -2.23960938 10.84867187 -2.10546875 9.93359375 C-1.97785156 9.08152344 -1.85023437 8.22945313 -1.71875 7.3515625 C-1.54762695 6.20421631 -1.54762695 6.20421631 -1.37304688 5.03369141 C-1 3 -1 3 0 0 Z " fill="#D4B7F3" transform="translate(109,374)"/>
<path d="M0 0 C1.65 0 3.3 0 5 0 C1.61321757 2.82515519 -2.09913106 4.5400433 -6.125 6.25 C-7.07439453 6.67152344 -7.07439453 6.67152344 -8.04296875 7.1015625 C-9.6691033 7.79897052 -11.33304382 8.40674742 -13 9 C-13.66 8.67 -14.32 8.34 -15 8 C-14.67 7.34 -14.34 6.68 -14 6 C-13.01 6 -12.02 6 -11 6 C-11 5.34 -11 4.68 -11 4 C-9.02 4 -7.04 4 -5 4 C-5 3.34 -5 2.68 -5 2 C-3.35 2 -1.7 2 0 2 C0 1.34 0 0.68 0 0 Z " fill="#CCB2F2" transform="translate(331,387)"/>
<path d="M0 0 C5.445 1.485 5.445 1.485 11 3 C11 3.66 11 4.32 11 5 C12.32 5.33 13.64 5.66 15 6 C10.59113498 6.15887802 6.88223316 5.63526218 2.625 4.5 C1.56539062 4.2215625 0.50578125 3.943125 -0.5859375 3.65625 C-1.78089844 3.33140625 -1.78089844 3.33140625 -3 3 C-2.01 2.67 -1.02 2.34 0 2 C0 1.34 0 0.68 0 0 Z " fill="#BA98ED" transform="translate(189,263)"/>
<path d="M0 0 C1.32 0.33 2.64 0.66 4 1 C4 1.66 4 2.32 4 3 C4.66 3.33 5.32 3.66 6 4 C6 4.66 6 5.32 6 6 C3.69 6.33 1.38 6.66 -1 7 C-1.625 5.1875 -1.625 5.1875 -2 3 C-1.34 2.01 -0.68 1.02 0 0 Z " fill="#9869DE" transform="translate(98,245)"/>
<path d="M0 0 C0.33 0 0.66 0 1 0 C1.09765625 6.15234375 1.09765625 6.15234375 1 8 C0.67 8.33 0.34 8.66 0 9 C-0.36760731 11.32817964 -0.70241581 13.6618385 -1 16 C-3 14 -3 14 -3.3125 10.8125 C-2.95717884 6.47758191 -1.89596629 3.87093117 0 0 Z " fill="#AC86E4" transform="translate(144,156)"/>
<path d="M0 0 C0.33 0.66 0.66 1.32 1 2 C-2.28519475 3.09506492 -4.73663415 3.09960608 -8.1875 3.0625 C-9.81751953 3.04896484 -9.81751953 3.04896484 -11.48046875 3.03515625 C-12.31191406 3.02355469 -13.14335937 3.01195313 -14 3 C-14 2.34 -14 1.68 -14 1 C-9.27685687 0.22887459 -4.78478822 -0.09764874 0 0 Z " fill="#BA97E7" transform="translate(393,82)"/>
<path d="M0 0 C-1.25 1.5 -1.25 1.5 -3 3 C-4.32 3 -5.64 3 -7 3 C-7 3.66 -7 4.32 -7 5 C-9.31 4.67 -11.62 4.34 -14 4 C-10.28835785 0.28835785 -5.09745779 -0.30893684 0 0 Z " fill="#B693E7" transform="translate(223,87)"/>
<path d="M0 0 C0.33 0 0.66 0 1 0 C0.85915204 1.79206547 0.71216299 3.58364917 0.5625 5.375 C0.48128906 6.37273437 0.40007812 7.37046875 0.31640625 8.3984375 C0 11 0 11 -1 13 C-1.99 12.67 -2.98 12.34 -4 12 C-3.67 9.69 -3.34 7.38 -3 5 C-2.01 4.67 -1.02 4.34 0 4 C0 2.68 0 1.36 0 0 Z " fill="#B99AE8" transform="translate(366,362)"/>
<path d="M0 0 C1.32 0 2.64 0 4 0 C3.01 4.62 2.02 9.24 1 14 C0.67 14 0.34 14 0 14 C0 10.66666667 0 7.33333333 0 4 C-0.33 3.34 -0.66 2.68 -1 2 C-0.67 1.34 -0.34 0.68 0 0 Z " fill="#8B5EE0" transform="translate(243,154)"/>
<path d="M0 0 C0.78761719 0.10828125 1.57523438 0.2165625 2.38671875 0.328125 C3.16660156 0.44671875 3.94648438 0.5653125 4.75 0.6875 C5.45769531 0.78546875 6.16539062 0.8834375 6.89453125 0.984375 C8.51444144 1.20872101 10.13247004 1.44659128 11.75 1.6875 C11.75 2.0175 11.75 2.3475 11.75 2.6875 C5.31688704 2.78257063 -0.90758005 2.84066726 -7.25 1.6875 C-3.9863629 -0.48825807 -3.62538724 -0.52606144 0 0 Z " fill="#B895E8" transform="translate(247.25,205.3125)"/>
<path d="M0 0 C-0.66 0 -1.32 0 -2 0 C-2.33 1.32 -2.66 2.64 -3 4 C-3 3.01 -3 2.02 -3 1 C-4.65 1.33 -6.3 1.66 -8 2 C-8.33 2.99 -8.66 3.98 -9 5 C-11.97 4.505 -11.97 4.505 -15 4 C-12.69846709 1.69846709 -11.15124095 1.2422972 -8.0625 0.3125 C-7.18722656 0.04050781 -6.31195313 -0.23148437 -5.41015625 -0.51171875 C-3 -1 -3 -1 0 0 Z " fill="#C5A7F0" transform="translate(184,100)"/>
<path d="M0 0 C2.29013653 3.4352048 2.17842973 4.985331 2 9 C1.67 9 1.34 9 1 9 C0.01 12.465 0.01 12.465 -1 16 C-2.22602512 12.32192463 -1.70295577 10.11756073 -1.0625 6.3125 C-0.86785156 5.13300781 -0.67320312 3.95351563 -0.47265625 2.73828125 C-0.31667969 1.83464844 -0.16070312 0.93101562 0 0 Z " fill="#C5A5EE" transform="translate(269,288)"/>
<path d="M0 0 C2.64 0 5.28 0 8 0 C9.35439668 2.70879335 9.06501451 5.00933268 9 8 C8.67 8 8.34 8 8 8 C8 6.35 8 4.7 8 3 C5.36 2.67 2.72 2.34 0 2 C0 1.34 0 0.68 0 0 Z " fill="#B28EE4" transform="translate(262,279)"/>
<path d="M0 0 C2.0625 0.4375 2.0625 0.4375 4 1 C4 2.32 4 3.64 4 5 C1.03 4.67 -1.94 4.34 -5 4 C-4.360625 3.525625 -3.72125 3.05125 -3.0625 2.5625 C-1.11706694 1.16261274 -1.11706694 1.16261274 0 0 Z " fill="#8D55DF" transform="translate(205,264)"/>
<path d="M0 0 C3.625 0.1875 3.625 0.1875 6.625 2.1875 C2.24069689 4.25786536 2.24069689 4.25786536 -0.5625 3.9375 C-2.375 3.1875 -2.375 3.1875 -4.375 1.1875 C-3.375 0.1875 -3.375 0.1875 0 0 Z " fill="#9F6DE4" transform="translate(295.375,400.8125)"/>
<path d="M0 0 C0.33 0 0.66 0 1 0 C1.33 4.29 1.66 8.58 2 13 C0.02 13.99 0.02 13.99 -2 15 C-2 14.34 -2 13.68 -2 13 C-1.34 12.67 -0.68 12.34 0 12 C-0.33 11.01 -0.66 10.02 -1 9 C-0.87890625 6.73828125 -0.87890625 6.73828125 -0.5625 4.3125 C-0.46066406 3.50425781 -0.35882813 2.69601563 -0.25390625 1.86328125 C-0.17011719 1.24839844 -0.08632812 0.63351563 0 0 Z " fill="#9868E5" transform="translate(136,188)"/>
<path d="M0 0 C-0.99 0 -1.98 0 -3 0 C-3.33 0.99 -3.66 1.98 -4 3 C-6.64 3 -9.28 3 -12 3 C-7.91789166 -0.35316042 -5.14839074 -1.65483988 0 0 Z " fill="#C3A6ED" transform="translate(209,92)"/>
<path d="M0 0 C4.69023454 0.56606279 9.34500026 1.18537505 14 2 C14 2.33 14 2.66 14 3 C10.37 3 6.74 3 3 3 C3 2.34 3 1.68 3 1 C2.01 0.67 1.02 0.34 0 0 Z " fill="#CBB1ED" transform="translate(344,225)"/>
<path d="M0 0 C3.63 0.66 7.26 1.32 11 2 C11 2.66 11 3.32 11 4 C6.55129785 4.39253254 3.85756507 3.15305957 0 1 C0 0.67 0 0.34 0 0 Z " fill="#B694E7" transform="translate(138,254)"/>
<path d="M0 0 C1.21236328 0.04060547 1.21236328 0.04060547 2.44921875 0.08203125 C3.06410156 0.11683594 3.67898437 0.15164063 4.3125 0.1875 C0.27957255 2.4219598 -3.13717434 2.73246743 -7.6875 3.1875 C-5.26849268 0.20484049 -3.789448 -0.16475861 0 0 Z " fill="#8958D9" transform="translate(139.6875,408.8125)"/>
<path d="M0 0 C1.32 0 2.64 0 4 0 C3.67 0.99 3.34 1.98 3 3 C-0.5625 4.1875 -0.5625 4.1875 -4 5 C-3.67 4.01 -3.34 3.02 -3 2 C-2.01 2 -1.02 2 0 2 C0 1.34 0 0.68 0 0 Z " fill="#B694E8" transform="translate(320,391)"/>
<path d="M0 0 C0.33 0.99 0.66 1.98 1 3 C-2.01031744 3.93423645 -2.86650268 4.04449911 -6 3 C-6 2.34 -6 1.68 -6 1 C-3 0 -3 0 0 0 Z " fill="#8B5AE2" transform="translate(172,104)"/>
<path d="M0 0 C2.97 0.33 5.94 0.66 9 1 C7.68 1.33 6.36 1.66 5 2 C1.9254644 2.7763932 1.9254644 2.7763932 0 5 C-0.33 4.01 -0.66 3.02 -1 2 C-0.67 1.34 -0.34 0.68 0 0 Z " fill="#B98BF7" transform="translate(234,203)"/>
<path d="M0 0 C0 0.99 0 1.98 0 3 C-2.97 2.67 -5.94 2.34 -9 2 C-9 1.67 -9 1.34 -9 1 C-2.25 0 -2.25 0 0 0 Z " fill="#8E5ADC" transform="translate(240,272)"/>
<path d="M0 0 C0.33 0 0.66 0 1 0 C1 1.65 1 3.3 1 5 C-0.65 5.66 -2.3 6.32 -4 7 C-2.79618552 4.50638429 -1.54571278 2.31856917 0 0 Z " fill="#C8ACEF" transform="translate(131,202)"/>
<path d="" fill="#FFFFFF" transform="translate(0,0)"/>
<path d="" fill="#FFFFFF" transform="translate(0,0)"/>
<path d="" fill="#FFFFFF" transform="translate(0,0)"/>
<path d="" fill="#FFFFFF" transform="translate(0,0)"/>
<path d="" fill="#FFFFFF" transform="translate(0,0)"/>
<path d="" fill="#FFFFFF" transform="translate(0,0)"/>
<path d="" fill="#FFFFFF" transform="translate(0,0)"/>
<path d="" fill="#FFFFFF" transform="translate(0,0)"/>
<path d="" fill="#FFFFFF" transform="translate(0,0)"/>
<path d="" fill="#FFFFFF" transform="translate(0,0)"/>
<path d="" fill="#FFFFFF" transform="translate(0,0)"/>
<path d="" fill="#FFFFFF" transform="translate(0,0)"/>
<path d="" fill="#FFFFFF" transform="translate(0,0)"/>
<path d="" fill="#FFFFFF" transform="translate(0,0)"/>
<path d="" fill="#FFFFFF" transform="translate(0,0)"/>
<path d="" fill="#FFFFFF" transform="translate(0,0)"/>
<path d="" fill="#FFFFFF" transform="translate(0,0)"/>
<path d="" fill="#FFFFFF" transform="translate(0,0)"/>
<path d="" fill="#FFFFFF" transform="translate(0,0)"/>
<path d="" fill="#FFFFFF" transform="translate(0,0)"/>
<path d="" fill="#FFFFFF" transform="translate(0,0)"/>
<path d="" fill="#FFFFFF" transform="translate(0,0)"/>
<path d="" fill="#FFFFFF" transform="translate(0,0)"/>
<path d="" fill="#FFFFFF" transform="translate(0,0)"/>
<path d="" fill="#FFFFFF" transform="translate(0,0)"/>
<path d="" fill="#FFFFFF" transform="translate(0,0)"/>
<path d="" fill="#FFFFFF" transform="translate(0,0)"/>
<path d="" fill="#FFFFFF" transform="translate(0,0)"/>
<path d="" fill="#FFFFFF" transform="translate(0,0)"/>
<path d="" fill="#FFFFFF" transform="translate(0,0)"/>
<path d="" fill="#FFFFFF" transform="translate(0,0)"/>
<path d="" fill="#FFFFFF" transform="translate(0,0)"/>
<path d="" fill="#FFFFFF" transform="translate(0,0)"/>
<path d="" fill="#FFFFFF" transform="translate(0,0)"/>
<path d="" fill="#FFFFFF" transform="translate(0,0)"/>
<path d="" fill="#FFFFFF" transform="translate(0,0)"/>
<path d="" fill="#FFFFFF" transform="translate(0,0)"/>
<path d="" fill="#FFFFFF" transform="translate(0,0)"/>
<path d="" fill="#FFFFFF" transform="translate(0,0)"/>
<path d="" fill="#FFFFFF" transform="translate(0,0)"/>
<path d="" fill="#FFFFFF" transform="translate(0,0)"/>
<path d="" fill="#FFFFFF" transform="translate(0,0)"/>
<path d="" fill="#FFFFFF" transform="translate(0,0)"/>
<path d="" fill="#FFFFFF" transform="translate(0,0)"/>
<path d="" fill="#FFFFFF" transform="translate(0,0)"/>
<path d="" fill="#FFFFFF" transform="translate(0,0)"/>
<path d="" fill="#FFFFFF" transform="translate(0,0)"/>
<path d="" fill="#FFFFFF" transform="translate(0,0)"/>
<path d="" fill="#FFFFFF" transform="translate(0,0)"/>
<path d="" fill="#FFFFFF" transform="translate(0,0)"/>
<path d="" fill="#FFFFFF" transform="translate(0,0)"/>
<path d="" fill="#FFFFFF" transform="translate(0,0)"/>
<path d="" fill="#FFFFFF" transform="translate(0,0)"/>
<path d="" fill="#FFFFFF" transform="translate(0,0)"/>
<path d="" fill="#FFFFFF" transform="translate(0,0)"/>
<path d="" fill="#FFFFFF" transform="translate(0,0)"/>
<path d="" fill="#FFFFFF" transform="translate(0,0)"/>
<path d="" fill="#FFFFFF" transform="translate(0,0)"/>
<path d="" fill="#FFFFFF" transform="translate(0,0)"/>
<path d="" fill="#FFFFFF" transform="translate(0,0)"/>
<path d="" fill="#FFFFFF" transform="translate(0,0)"/>
<path d="" fill="#FFFFFF" transform="translate(0,0)"/>
<path d="" fill="#FFFFFF" transform="translate(0,0)"/>
<path d="" fill="#FFFFFF" transform="translate(0,0)"/>
<path d="" fill="#FFFFFF" transform="translate(0,0)"/>
<path d="" fill="#FFFFFF" transform="translate(0,0)"/>
</svg>
